<?xml version="1.0" encoding="UTF-8"?>
<svg xmlns="http://www.w3.org/2000/svg" xmlns:xlink="http://www.w3.org/1999/xlink" width="500pt" height="500pt" viewBox="0 0 500 500" version="1.1">
<g id="surface18527270">
<path style=" stroke:none;fill-rule:evenodd;fill:rgb(100%,100%,100%);fill-opacity:1;" d="M 250 450 C 128.4375 450 30 352.5 30 232.070312 L 30 93.242188 C 30 74.921875 45.039062 60 63.59375 60 L 436.40625 60 C 454.960938 60 470 74.921875 470 93.242188 L 470 232.070312 C 470 352.5 371.5625 450 250 450 Z M 250 340 C 243.046875 340 236.171875 338.125 229.140625 331.953125 L 120 220 C 108.4375 208.515625 107.578125 188.476562 119.140625 178.164062 C 130.742188 166.679688 149.257812 166.679688 159.6875 178.164062 L 250 266.484375 L 339.140625 178.164062 C 350.742188 166.679688 369.257812 166.679688 379.6875 178.164062 C 391.25 189.609375 391.5625 209.6875 380 220 L 269.6875 331.953125 C 264.179688 338.359375 256.953125 340 250 340 Z M 250 340 "/>
</g>
</svg>
